<?xml version="1.0" encoding="utf-8"?>
<!-- Generator: Adobe Illustrator 26.0.3, SVG Export Plug-In . SVG Version: 6.00 Build 0)  -->
<svg version="1.1" xmlns="http://www.w3.org/2000/svg" xmlns:xlink="http://www.w3.org/1999/xlink" x="0px" y="0px"
	 viewBox="0 0 700 350" style="enable-background:new 0 0 700 350;" xml:space="preserve">
<style type="text/css">
	@import url('https://fonts.googleapis.com/css2?family=Lato&amp;display=swap');
	@import url('https://fonts.googleapis.com/css2?family=Lato:wght@300;700&amp;display=swap');
	.st0{fill:#BBE7F9;}
	.st1{fill:#E6E6E6;stroke:#FFFFFF;stroke-width:2;stroke-miterlimit:10;}
	.st2{fill:#FCDE32;stroke:#FFFFFF;stroke-width:2;stroke-miterlimit:10;}
	.st3{fill:none;stroke:#2B2F33;stroke-miterlimit:10;}
	.st4{fill:#2B2F33;}
	.st5{fill:none;stroke:#FFFFFF;stroke-width:3;stroke-miterlimit:10;}
	.st6{fill:none;stroke:#FFFFFF;stroke-width:2;stroke-miterlimit:10;}
	.st7{fill:#212529;}
	.st8{font-family:'Lato'; font-weight:300;}
	.st9{font-size:20px;}
	.st10{font-family:'Lato';}
	.st11{font-size:19.99892px;}
	.st12{font-size:19.99794px;}
	.st13{font-size:19.99851px;}
	.st14{font-size:19.99879px;}
	.st15{font-size:19.99924px;}
	.st16{font-size:18px;}
	.st17{font-family:'Lato'; font-weight:700;}
	.st18{fill:#ED1C24;}
</style>
<g id="shapes">
	<ellipse class="st0" cx="57.45896" cy="173.94832" rx="56.95932" ry="40.5"/>
	<ellipse class="st0" cx="643.04071" cy="124.94833" rx="56.95932" ry="40.5"/>
	<ellipse class="st0" cx="643.04071" cy="236.94832" rx="56.95932" ry="40.5"/>
	<path class="st1" d="M523.72015,306.28165H205.58481c-1.65686,0-3-1.34314-3-3V19.71834c0-1.65685,1.34314-3,3-3h318.13535
		c1.65686,0,3,1.34315,3,3v283.56329C526.72015,304.93851,525.37701,306.28165,523.72015,306.28165z"/>
	<path class="st2" d="M353.24591,159.28166H230.33762c-1.65686,0-3-1.34315-3-3V70.44833c0-1.65685,1.34314-3,3-3h122.90829
		c1.65686,0,3,1.34315,3,3v85.83334C356.24591,157.93851,354.90277,159.28166,353.24591,159.28166z"/>
	<path class="st2" d="M352.24661,292.44833h-123.9072c-1.65686,0-3-1.34314-3-3v-86.00002c0-1.65685,1.34314-3,3-3h123.9072
		c1.65686,0,3,1.34315,3,3v86.00002C355.24661,291.10519,353.90347,292.44833,352.24661,292.44833z"/>
	<path class="st2" d="M500.14099,159.44832H376.23376c-1.65683,0-3-1.34314-3-3V70.44833c0-1.65685,1.34317-3,3-3h123.90723
		c1.65686,0,3,1.34315,3,3v85.99999C503.14099,158.10518,501.79785,159.44832,500.14099,159.44832z"/>
	<g>
		<g>
			<path class="st3" d="M511.56885,84.59225c28.89874-4.51418,71.09833,1.61384,98.99506,7.35608"/>
			<g>
				<polygon class="st4" points="504.63956,85.94833 515.16431,88.12643 512.10004,84.5611 513.6781,80.13356 				"/>
			</g>
		</g>
	</g>
	<path class="st3" d="M117.74716,125.03792"/>
	<line class="st5" x1="202.35545" y1="53.94831" x2="526.65106" y2="52.9486"/>
	<line class="st5" x1="364.73947" y1="17.44833" x2="364.73947" y2="54.44833"/>
	<line class="st6" x1="325.7673" y1="159.94832" x2="355.74591" y2="130.94832"/>
	<line class="st6" x1="227.97394" y1="93.11706" x2="356.2421" y2="92.47061"/>
	<line class="st6" x1="292.28476" y1="67.45174" x2="292.28525" y2="92.45174"/>
	<line class="st6" x1="325.7673" y1="291.94833" x2="355.74591" y2="262.94833"/>
	<line class="st6" x1="225.97533" y1="225.11671" x2="355.24277" y2="224.47026"/>
	<line class="st6" x1="291.29156" y1="199.44832" x2="291.29205" y2="223.44832"/>
	<line class="st6" x1="472.66238" y1="160.94832" x2="502.64096" y2="131.94832"/>
	<line class="st6" x1="373.23044" y1="92.46863" x2="503.14062" y2="91.44994"/>
	<line class="st6" x1="438.18701" y1="67.44833" x2="438.68628" y2="93.44833"/>
</g>
<g id="arrows">
	<g>
		<g>
			<path class="st3" d="M321.77017,161.94832c79.38434,52.94518,167.95343,93.66072,278.7731,106.24348"/>
			<g>
				<polygon class="st4" points="607.56604,268.94833 597.20465,271.80438 600.03125,268.04782 598.16943,263.73193 				"/>
			</g>
		</g>
	</g>
	<g>
		<g>
			<path class="st3" d="M413.7045,159.94832c23.36841,34.23634,115.83871,58.11145,164.99448,69.43082"/>
			<g>
				<polygon class="st4" points="585.58173,230.94832 574.96985,232.65213 578.19098,229.22784 576.81311,224.73396 				"/>
			</g>
		</g>
	</g>
	<g>
		<g>
			<path class="st3" d="M587.63629,147.25381c-23.84949,3.44757-52.72961-2.2653-82.99673-6.3055"/>
			<g>
				<polygon class="st4" points="594.57532,145.94832 584.06604,143.6967 587.10529,147.28337 585.49634,151.69978 				"/>
			</g>
		</g>
	</g>
	<g>
		<g>
			<path class="st3" d="M222.84084,265.94833c-43.10156-0.64944-105.67845-26.36517-144.78313-48.46428"/>
			<g>
				<polygon class="st4" points="71.94861,213.94832 82.61664,215.25517 78.57204,217.65152 78.64919,222.35124 				"/>
			</g>
		</g>
	</g>
	<g>
		<g>
			<path class="st3" d="M225.83907,89.94833c-47.26653,1.43163-107.13631,25.76279-142.37894,42.06396"/>
			<g>
				<polygon class="st4" points="77.06995,135.00496 84.40086,127.14542 83.96033,131.82594 87.80675,134.5275 				"/>
			</g>
		</g>
	</g>
	<g>
		<g>
			<path class="st3" d="M218.78496,139.70876c-31.00656,0.06348-76.30728,13.45842-104.86633,28.23956"/>
			<g>
				<polygon class="st4" points="225.83868,139.94832 215.99442,135.63498 218.25269,139.75826 215.79079,143.7623 				"/>
			</g>
		</g>
	</g>
	<text transform="matrix(0.99485 0.09413 -0.09406 0.99556 510.69547 74.47833)" class="st7 st8 st9">Order Form</text>
</g>
<g id="text">
	<text transform="matrix(0.99929 0 0 1 52.87793 153.79541)" class="st7 st10 st9">a</text>
	<text transform="matrix(0.99929 0 0 1 637.95996 108.12891)" class="st7 st10 st9">b</text>
	<text transform="matrix(0.99929 0 0 1 342.1709 163.12891)" class="st7 st10 st9">*</text>
	<text transform="matrix(0.99929 0 0 1 234.24805 87.12891)" class="st7 st10 st9">1</text>
	<text transform="matrix(0.99929 0 0 1 18.41943 184.1958)" class="st7 st10 st9">Customer</text>
	<text transform="matrix(0.96157 -0.27235 0.27216 0.96225 97.13201 112.52968)" class="st7 st8 st11">Order Form</text>
	<text transform="matrix(0.96157 -0.27235 0.27216 0.96225 140.18002 179.06258)" class="st7 st8 st11">Invoice</text>
	<text transform="matrix(0.92781 0.37166 -0.37139 0.92848 387.75449 229.41217)" class="st7 st8 st12">Copy Invoice</text>
	<text transform="matrix(0.94617 0.3219 -0.32167 0.94685 453.6041 184.59442)" class="st7 st8 st13">Copy Order</text>
	<text transform="matrix(0.95893 0.28151 -0.28131 0.95962 86.8828 252.00623)" class="st7 st8 st14">Delivery Note</text>
	<text transform="matrix(0.97278 0.22895 -0.22879 0.97348 511.28433 160.35161)" class="st7 st8 st15">Delivery Note</text>
	<text transform="matrix(0.99929 0 0 1 265.57861 113.5293)"><tspan x="0" y="0" class="st7 st10 st9">Order </tspan><tspan x="-27.18982" y="24" class="st7 st10 st9">Department</tspan></text>
	<text transform="matrix(0.99929 0 0 1 610.49658 133.5293)" class="st7 st10 st9">Supplier</text>
	<text transform="matrix(0.99929 0 0 1 640.45801 215.79541)" class="st7 st10 st9">c</text>
	<text transform="matrix(0.99929 0 0 1 610.99609 244.19629)" class="st7 st10 st9">Finance</text>
	<text transform="matrix(0.99929 0 0 1 343.17041 296.12891)" class="st7 st10 st9">*</text>
	<text transform="matrix(0.99929 0 0 1 234.24805 219.12891)" class="st7 st10 st9">2</text>
	<text transform="matrix(0.99929 0 0 1 252.90283 251.5293)"><tspan x="0" y="0" class="st7 st10 st9">Dispatch </tspan><tspan x="11.91475" y="24" class="st7 st10 st9">Office</tspan></text>
	<text transform="matrix(0.99929 0 0 1 490.06543 164.12891)" class="st7 st10 st16">*</text>
	<text transform="matrix(0.99929 0 0 1 380.14404 87.12891)" class="st7 st10 st9">3</text>
	<text transform="matrix(0.99929 0 0 1 414.10254 113.5293)"><tspan x="0" y="0" class="st7 st10 st9">Stock </tspan><tspan x="-19.92975" y="24" class="st7 st10 st9">Controller</tspan></text>
	<text transform="matrix(0.99929 0 0 1 377.28418 42.5293)" class="st7 st17 st9">Sales System</text>
</g>
</svg>
